<svg width="810" height="192" viewBox="0 0 810 192" fill="none" xmlns="http://www.w3.org/2000/svg">
<rect y="12" width="49" height="180" fill="#C44569"/>
<rect x="694" width="49" height="180" fill="#C44569"/>
<rect x="617" y="190" width="49" height="84" transform="rotate(-90 617 190)" fill="#C44569"/>
<rect x="630" y="95" width="49" height="180" transform="rotate(-90 630 95)" fill="#C44569"/>
<rect x="764" y="114" width="49" height="46" transform="rotate(-90 764 114)" fill="#C44569"/>
<rect x="630" y="110" width="49" height="46" transform="rotate(-90 630 110)" fill="#C44569"/>
<rect x="694" width="49" height="190" fill="#C44569"/>
<rect x="128.997" y="142" width="49" height="110" transform="rotate(89.5825 128.997 142)" fill="#C44569"/>
<rect x="579.444" y="140.763" width="49" height="182.448" transform="rotate(89.5825 579.444 140.763)" fill="#303952"/>
<rect x="462.414" y="1.27249" width="49" height="154.554" transform="rotate(25.0395 462.414 1.27249)" fill="#303952"/>
<rect x="531" y="96" width="49" height="69.9984" fill="#303952"/>
<rect x="462.732" y="50.1511" width="49" height="77.4404" transform="rotate(-90.8558 462.732 50.1511)" fill="#303952"/>
<rect x="128.997" y="142" width="49" height="110" transform="rotate(89.5825 128.997 142)" fill="#C44569"/>
<rect x="348.997" y="142" width="49" height="110" transform="rotate(89.5825 348.997 142)" fill="#C44569"/>
<rect x="99" y="12" width="49" height="180" fill="#C44569"/>
<rect x="220" y="12" width="49" height="180" fill="#C44569"/>
<rect x="313" y="12" width="49" height="180" fill="#C44569"/>
<rect x="352" y="12" width="49" height="333" transform="rotate(90 352 12)" fill="#C44569"/>
</svg>
