<svg width="774" height="228" viewBox="0 0 774 228" fill="none" xmlns="http://www.w3.org/2000/svg">
<rect x="31" y="129" width="33" height="65" fill="#C44569"/>
<rect x="115" y="184" width="23" height="10" fill="#C44569"/>
<rect x="190" y="41" width="33" height="153" fill="#C44569"/>
<rect x="500" y="44" width="33" height="151" fill="#C44569"/>
<rect x="555" y="44" width="33" height="151" fill="#C44569"/>
<rect x="351" y="110" width="33" height="85" fill="#303952"/>
<path fill-rule="evenodd" clip-rule="evenodd" d="M32.0883 44L115.479 193.888L144.316 177.844L69.8518 44H32.0883Z" fill="#C44569"/>
<rect x="230" y="44" width="89" height="33" fill="#C44569"/>
<rect x="555" y="44" width="58" height="33" fill="#C44569"/>
<rect x="351" y="41" width="70" height="33" fill="#303952"/>
<rect x="351" y="101" width="70" height="33" fill="#303952"/>
<rect x="230" y="101" width="70" height="33" fill="#C44569"/>
<rect x="230" y="162" width="89" height="33" fill="#C44569"/>
<path fill-rule="evenodd" clip-rule="evenodd" d="M420.5 134C446.181 134 467 113.181 467 87.5C467 61.8188 446.181 41 420.5 41C399.514 41 381.775 54.9025 375.99 74H421.5C428.956 74 435 80.0442 435 87.5C435 94.9558 428.956 101 421.5 101H375.99C381.775 120.098 399.514 134 420.5 134Z" fill="#303952"/>
<path fill-rule="evenodd" clip-rule="evenodd" d="M430.979 110.126L404.364 129.636L452.278 195H492.259L492.868 194.554L430.979 110.126Z" fill="#303952"/>
<path fill-rule="evenodd" clip-rule="evenodd" d="M185.926 41L110 177.974L138.862 193.973L223.103 41.9987L221.301 41H185.926Z" fill="#C44569"/>
<path fill-rule="evenodd" clip-rule="evenodd" d="M668.136 41L612.503 193.851L612.914 194H647.567L702.197 43.9048L694.216 41H668.136Z" fill="#C44569"/>
<path fill-rule="evenodd" clip-rule="evenodd" d="M671 44.2867L680.03 41H704.922L760.694 194.232L758.585 195H725.855L671 44.2867Z" fill="#C44569"/>
</svg>
